<?xml version="1.0" encoding="UTF-8" standalone="no"?>
<svg
   xmlns:dc="http://purl.org/dc/elements/1.1/"
   xmlns:cc="http://creativecommons.org/ns#"
   xmlns:rdf="http://www.w3.org/1999/02/22-rdf-syntax-ns#"
   xmlns:svg="http://www.w3.org/2000/svg"
   xmlns="http://www.w3.org/2000/svg"
   version="1.1"
   id="svg5332"
   viewBox="0 0 256.00007 256.00002"
   height="72.248894mm"
   width="72.248909mm">
  <title
     id="title6412">Circuit Board</title>
  <defs
     id="defs5334" />
  <metadata
     id="metadata5337">
    <rdf:RDF>
      <cc:Work
         rdf:about="">
        <dc:format>image/svg+xml</dc:format>
        <dc:type
           rdf:resource="http://purl.org/dc/dcmitype/StillImage" />
        <dc:title>Circuit Board</dc:title>
        <cc:license
           rdf:resource="http://creativecommons.org/publicdomain/zero/1.0/" />
        <dc:creator>
          <cc:Agent>
            <dc:title>Josh &quot;Cheeseness&quot; Bush</dc:title>
          </cc:Agent>
        </dc:creator>
        <dc:description>Originally created for the official shirt for the 2014 Open Source Developers' Conference held at Griffith University.</dc:description>
        <dc:subject>
          <rdf:Bag>
            <rdf:li>circuit pcb</rdf:li>
          </rdf:Bag>
        </dc:subject>
        <dc:date>2014-10-22</dc:date>
      </cc:Work>
      <cc:License
         rdf:about="http://creativecommons.org/publicdomain/zero/1.0/">
        <cc:permits
           rdf:resource="http://creativecommons.org/ns#Reproduction" />
        <cc:permits
           rdf:resource="http://creativecommons.org/ns#Distribution" />
        <cc:permits
           rdf:resource="http://creativecommons.org/ns#DerivativeWorks" />
      </cc:License>
    </rdf:RDF>
  </metadata>
  <g
     transform="translate(-362.5464,-406.21469)"
     id="layer1">
    <path
       id="rect4253-1"
       d="m 436.43049,406.2147 c -2.8764,0 -5.192,2.31561 -5.192,5.19196 l 0,245.61603 c 0,2.8764 2.3156,5.192 5.192,5.192 l 99.3367,0 c 2.8763,0 5.192,-2.3156 5.192,-5.192 l 0,-7.4309 3.7033,0 c 2.8763,0 5.1919,-2.316 5.1919,-5.1919 l 0,-5.4153 -11.2519,0 -91.2811,0 -8.7857,-8.7856 0,-201.65888 5.2811,-5.28126 4.8148,0 0,-5.07835 c 0,-2.87635 2.3156,-5.19196 5.1919,-5.19196 l 14.0913,0 c 2.8764,0 5.192,2.31561 5.192,5.19196 l 0,6.48994 8.0759,0 7.6865,0 0,-5.00525 c 0,-1.64377 1.3256,-2.96918 2.9692,-2.96918 l 1.8537,0 c 1.6436,0 2.9651,1.32541 2.9651,2.96918 l 0,11.86445 c 0,1.64336 -1.3215,2.96897 -2.9651,2.96897 l -1.8537,0 c -1.6436,0 -2.9692,-1.32561 -2.9692,-2.96897 l 0,-4.78241 -5.6097,0 0,43.45833 5.411,5.41106 30.2147,0 8.3031,8.30298 0,79.73308 11.8442,11.8441 10.8219,0 0,-8.16114 -11.6819,0 -5.9302,-5.93004 0,-131.0969 -3.5451,-3.54528 -1.0749,0 0,5.50846 c 0,2.87635 -2.3156,5.19196 -5.1919,5.19196 l -6.2304,0 0,20.48787 -9.1954,9.19953 0,6.79419 -2.0768,0 0,-7.65419 9.1954,-9.19952 0,-19.62788 -5.7841,0 c -2.8764,0 -5.192,-2.31561 -5.192,-5.19196 l 0,-14.09138 c 0,-2.87635 2.3156,-5.19196 5.192,-5.19196 l 14.0913,0 c 2.8763,0 5.1919,2.31561 5.1919,5.19196 l 0,6.50614 1.9348,0 4.762,4.76206 0,131.0969 4.7134,4.71326 10.8219,0 0,-5.41085 c 0,-2.87634 -2.3156,-5.19195 -5.1919,-5.19195 l -3.7033,0 0,-143.2494 c 0,-2.87635 -2.3157,-5.19196 -5.192,-5.19196 l -99.3367,0 z m 8.2463,19.12094 -4.0644,4.06447 0,199.93888 7.5689,7.5689 90.4212,0 11.2519,0 0,-8.157 -11.2519,0 -71.3448,0 -6.9158,-6.9118 0,-9.51598 -5.0662,0 c -1.6437,0 -2.9651,-1.32561 -2.9651,-2.96896 l 0,-1.85374 c 0,-1.64377 1.3214,-2.96523 2.9651,-2.96523 l 1.0343,0 0,-25.08753 -10.7733,-10.77331 0,-120.66439 7.3336,-7.33374 0,-3.30977 c -2.4155,-0.44713 -4.2387,-2.54572 -4.2387,-5.09456 l 0,-6.93624 -3.9548,0 z m 28.43,1.41159 0,5.52465 c 0,2.74032 -2.1085,4.94628 -4.7945,5.15125 l 0,4.27132 9.6376,9.63752 0,21.56697 7.9705,7.97443 7.8487,0 4.762,4.76206 0,10.98016 4.9932,0 c 1.6437,0 2.9692,1.32146 2.9692,2.96502 l 0,1.85789 c 0,1.64357 -1.3255,2.96502 -2.9692,2.96502 l -5.0175,0 0,5.60981 -7.4918,7.49179 -10.8301,0 -5.269,5.269 0,-2.93678 4.4091,-4.40901 10.8301,0 6.2749,-6.275 0,-4.74981 -4.7701,0 c -1.6436,0 -2.9691,-1.32145 -2.9691,-2.96502 l 0,-1.85789 c 0,-1.64356 1.3255,-2.96502 2.9691,-2.96502 l 4.7945,0 0,-10.12037 -3.5452,-3.54507 -7.8488,0 -9.1873,-9.19142 0,-21.56676 -9.6375,-9.63773 0,-5.0904 -11.2885,0 0,4.07236 -7.3336,7.33374 0,118.9444 10.7733,10.77331 0,25.94753 5.4596,0 0,-73.62838 5.695,-5.69495 0,2.93678 -3.6182,3.61817 0,72.76838 1.2209,0 c 1.6437,0 2.9651,1.32146 2.9651,2.96523 l 0,1.85374 c 0,1.64335 -1.3214,2.96896 -2.9651,2.96896 l -4.7254,0 0,8.65598 5.6989,5.695 70.4849,0 11.2519,0 0,-8.157 -11.2519,0 -48.7152,0 -8.2138,-8.21385 0,-13.98173 -10.4731,-10.47322 0,-109.46098 -8.5262,-8.52228 -4.0278,0 0,4.83101 c 0,1.64357 -1.3256,2.96523 -2.9692,2.96523 l -1.8537,0 c -1.6436,0 -2.965,-1.32166 -2.965,-2.96523 l 0,-11.8684 c 0,-1.64377 1.3214,-2.96523 2.965,-2.96523 l 1.8537,0 c 1.6436,0 2.9692,1.32146 2.9692,2.96523 l 0,4.96061 4.8877,0 9.7431,9.73907 0,109.46098 10.4731,10.47321 0,13.98173 6.997,6.9971 47.8552,0 11.2519,0 0,-8.16114 -11.2519,0 -35.2323,0 -25.5258,-25.52573 0,-47.07651 21.6927,-21.69677 7.8731,0 7.3864,-7.38628 0,-9.33742 -9.8688,-9.87282 0,-8.06373 2.0768,0 0,7.20373 9.8687,9.87282 0,11.05721 -8.6032,8.60327 -7.869,0 -20.4799,20.47978 0,45.35257 24.3089,24.3131 34.3724,0 11.2519,0 0,-8.15719 -11.2519,0 -33.3948,0 -10.4975,-10.4973 0,-24.36585 -6.0235,0 c -2.8763,0 -5.1919,-2.31561 -5.1919,-5.19196 l 0,-14.09118 c 0,-2.87634 2.3156,-5.19195 5.1919,-5.19195 l 5.8937,0 0,-11.02086 6.3398,-6.3398 12.3228,0 6.6198,6.61975 0,38.59887 19.1697,19.16579 10.8219,0 0,-8.15718 -11.6819,0 -13.061,-13.06089 0,-79.73308 -7.0862,-7.08619 -30.2147,0 -6.6279,-6.6239 0,-44.32227 -8.0759,0 z m 32.2672,20.91382 a 4.450248,4.450248 0 0 1 4.4496,4.45387 4.450248,4.450248 0 0 1 -4.4496,4.4495 4.450248,4.450248 0 0 1 -4.4497,-4.4495 4.450248,4.450248 0 0 1 4.4497,-4.45387 z m 17.7987,1.78894 1.8536,0 c 1.6437,0 2.9692,1.3254 2.9692,2.96897 l 0,11.86445 c 0,1.64377 -1.3255,2.96918 -2.9692,2.96918 l -1.8536,0 c -1.6437,0 -2.9651,-1.32541 -2.9651,-2.96918 l 0,-11.86445 c 0,-1.64357 1.3214,-2.96897 2.9651,-2.96897 z m -54.5156,6.55889 a 4.450248,4.450248 0 0 1 4.4497,4.44951 4.450248,4.450248 0 0 1 -4.4497,4.44972 4.450248,4.450248 0 0 1 -4.4497,-4.44972 4.450248,4.450248 0 0 1 4.4497,-4.44951 z m 12.6027,40.05096 a 4.450248,4.450248 0 0 1 4.4537,4.44972 4.450248,4.450248 0 0 1 -4.4537,4.44971 4.450248,4.450248 0 0 1 -4.4497,-4.44971 4.450248,4.450248 0 0 1 4.4497,-4.44972 z m 20.5204,27.36327 -5.123,5.12301 0,10.16087 6.1249,0 c 2.8763,0 5.1919,2.31561 5.1919,5.19195 l 0,14.09118 c 0,2.87635 -2.3156,5.19196 -5.1919,5.19196 l -5.9951,0 0,23.5017 9.2806,9.28467 32.5349,0 11.2519,0 0,-8.16092 -11.6819,0 -20.3865,-20.38258 0,-38.59888 -5.4029,-5.40296 -10.6029,0 z m -45.9286,10.27447 a 4.450248,4.450248 0 0 1 4.4497,4.45366 4.450248,4.450248 0 0 1 -4.4497,4.44972 4.450248,4.450248 0 0 1 -4.4496,-4.44972 4.450248,4.450248 0 0 1 4.4496,-4.45366 z m -0.9288,13.36119 1.8537,0 c 1.6436,0 2.9691,1.32146 2.9691,2.96502 l 0,11.8684 c 0,1.64377 -1.3255,2.96523 -2.9691,2.96523 l -1.8537,0 c -1.6437,0 -2.9651,-1.32146 -2.9651,-2.96523 l 0,-11.8684 c 0,-1.64356 1.3214,-2.96502 2.9651,-2.96502 z m 55.059,31.23273 a 4.450248,4.450248 0 0 1 4.4497,4.44972 4.450248,4.450248 0 0 1 -4.4497,4.45366 4.450248,4.450248 0 0 1 -4.4496,-4.45366 4.450248,4.450248 0 0 1 4.4496,-4.44972 z m -54.6737,69.07729 a 4.450248,4.450248 0 0 1 4.4497,4.4497 4.450248,4.450248 0 0 1 -4.4497,4.4498 4.450248,4.450248 0 0 1 -4.4496,-4.4498 4.450248,4.450248 0 0 1 4.4496,-4.4497 z m 15.5759,0 a 4.450248,4.450248 0 0 1 4.4496,4.4497 4.450248,4.450248 0 0 1 -4.4496,4.4498 4.450248,4.450248 0 0 1 -4.4497,-4.4498 4.450248,4.450248 0 0 1 4.4497,-4.4497 z m 37.4551,0.5558 11.8685,0 c 1.6436,0 2.9651,1.3214 2.9651,2.9652 l 0,1.8535 c 0,1.6438 -1.3215,2.9692 -2.9651,2.9692 l -11.8685,0 c -1.6437,0 -2.9651,-1.3254 -2.9651,-2.9692 l 0,-1.8535 c 0,-1.6438 1.3214,-2.9652 2.9651,-2.9652 z"
       style="color:#000000;clip-rule:nonzero;display:inline;overflow:visible;visibility:visible;color-interpolation:sRGB;color-interpolation-filters:linearRGB;fill:#808080;fill-opacity:1;stroke:none;stroke-width:2.5;marker:none;color-rendering:auto;image-rendering:auto;shape-rendering:auto;text-rendering:auto;enable-background:accumulate" />
  </g>
</svg>
