<?xml version="1.0" standalone="yes"?>
<svg width="432" height="432">
<path style="stroke:#fefefe; fill:none;" d="M1 137L85 53C95.1462 42.8539 108.581 23.0244 122 17.7384C135.326 12.4891 152.053 14.3809 166 11.1767C172.557 9.67038 176.801 4.24957 184 5.13425C191.534 6.06003 197.132 13.7809 205 13.7809C214.266 13.7809 220.392 3.94122 230 5.13425C235.52 5.8197 239.495 10.4049 245 11.5355C257.76 14.1561 277.86 11.8399 289 18.7423C300.174 25.6654 309.719 38.7188 319 48L381 110C392.661 121.661 404.195 133.47 416 144.985C420.583 149.456 428.1 153.772 430.397 160C433.431 168.231 431 181.258 431 190L431 248C431 255.641 433.054 266.792 430.397 274C427.618 281.536 417.582 288.418 412 294L372 334C366.369 339.631 357.618 345.819 354.028 353C351.588 357.88 353 365.671 353 371L353 411C353 415.381 355.151 427.999 351.397 430.972C346.85 434.573 332.657 432 327 432L260 432L1 432"/>
<path style="stroke:#333031; fill:none;" d="M182 11C184.14 25.7193 199.357 31.5911 205 44L228 15C233.848 25.6238 243.643 26.4962 255 30.0255C258.998 31.2677 267.797 32.5802 269.303 37.1335C272.134 45.6915 261.486 62.7894 260.289 72C258.893 82.7442 265.572 91.7473 264.815 102C263.321 122.225 254.506 141.604 254.015 162C253.258 193.4 266.836 224.663 269.83 256C274.889 308.946 271.65 363.383 265 416L272.396 411.786L272.015 399L272 367M228 11L228 15"/>
<path style="stroke:#fefefe; fill:none;" d="M205 15L205 41"/>
<path style="stroke:#333031; fill:none;" d="M181 16C179.805 28.141 188.043 53.6972 205 45"/>
<path style="stroke:#fefefe; fill:none;" d="M228 19C223.419 30.5734 218.119 35.7886 209 44M183 20C183.982 29.5999 190.159 36.0166 198 41"/>
<path style="stroke:#333031; fill:none;" d="M265 416C260.06 418.535 254.455 417.002 249 417L214 417L165 417C160.838 417 150.677 419.131 147.473 416.357C144.031 413.377 145.139 406.027 144.961 402C144.433 390.051 144.096 376.702 141.546 365C138.241 349.84 139 332.565 139 317C139 289.861 139.645 262.84 144.08 236C148.252 210.758 155.124 186.78 154.999 161C154.901 140.595 145.715 121.196 144.544 101C143.958 90.8901 149.93 80.9996 148.829 70C147.88 60.5111 137.863 46.0352 139.929 37.1335C140.822 33.2859 146.854 32.3822 150 31.3333C159.636 28.1208 169.341 25.1428 179 22M229 23C227.522 34.4433 219.151 50.3077 205 46"/>
<path style="stroke:#fefefe; fill:none;" d="M165 49L178.521 79L181.318 94.3966L196.66 100.499L204 121C209.761 118.027 214.593 111.005 221 109.607C225.859 108.547 246.331 113.475 248.393 118.228C251.05 124.354 246.952 135.606 246.156 142C244.174 157.92 243.972 174.05 245.09 190C245.975 202.64 247.713 215.442 249.424 228C250.108 233.029 252.295 241.308 249.971 246C243.776 258.511 226.858 270.142 217 280C213.253 283.747 207.798 287.725 206.243 293C203.845 301.136 205.665 311.661 205.871 320C206.174 332.256 205.965 344.774 205 357"/>
<path style="stroke:#333031; fill:none;" d="M207 49L213 60L220 55C216.752 53.4583 215.663 53.5702 213 56"/>
<path style="stroke:#fefefe; fill:none;" d="M212 50C215.791 49.2962 220.235 48.2417 224 49.6026C230.909 52.0997 239.969 60.4741 244 49M241 55L261 100"/>
<path style="stroke:#333031; fill:none;" d="M212 61L213 65L216 61M216 62L232 81C237.184 78.4226 240.988 80.0612 236 85C243.845 92.845 252.554 102.958 264 105"/>
<path style="stroke:#fefefe; fill:none;" d="M236 81L237 81"/>
<path style="stroke:#333031; fill:none;" d="M234 82L236 85M234 85C232.404 88.8109 234.024 89.64 237 87L237 87"/>
<path style="stroke:#fefefe; fill:none;" d="M181 96C174.903 102.097 163.592 109.788 160.604 118C157.214 127.317 162.904 143.266 163.83 153C165.762 173.296 163.392 192.8 161.911 213C161.275 221.676 156.026 236.99 160.028 245C163.076 251.1 170.228 256.228 175 261L206 292M204 121L204 288"/>
<path style="stroke:#333031; fill:none;" d="M171 128L173 230M238 128C233.688 162.093 235 195.688 235 230M139 363C137.999 375.68 138 388.256 138 401C138 407.458 137.234 413.787 145 415"/>
<path style="stroke:#fefefe; fill:none;" d="M140 365L142 410M270 369L269 410M0 432L1 432"/>
</svg>
